<?xml version="1.0" standalone="no"?>
<!DOCTYPE svg PUBLIC "-//W3C//DTD SVG 20010904//EN"
 "http://www.w3.org/TR/2001/REC-SVG-20010904/DTD/svg10.dtd">
<svg version="1.0" xmlns="http://www.w3.org/2000/svg"
 width="1280.000000pt" height="640.000000pt" viewBox="0 0 1280.000000 640.000000"
 preserveAspectRatio="xMidYMid meet">
<g transform="translate(0.000000,640.000000) scale(0.100000,-0.100000)"
fill="#000000" stroke="none">
<path d="M3746 4475 c-91 -23 -174 -73 -251 -150 -130 -131 -186 -259 -193
-445 -3 -87 0 -131 13 -180 35 -136 122 -261 239 -344 80 -58 98 -77 86 -96
-15 -24 -282 -19 -381 8 -163 44 -272 122 -321 230 -44 97 -103 109 -155 31
-14 -22 -63 -67 -108 -99 -45 -33 -90 -71 -99 -85 -25 -39 -54 -32 -76 18 -48
109 -172 158 -311 123 -78 -20 -132 -56 -181 -121 -22 -30 -53 -57 -77 -68
-59 -26 -235 -37 -607 -37 -182 0 -554 -3 -827 -7 l-497 -6 0 -47 0 -47 838
-7 c460 -4 886 -12 945 -17 134 -12 179 -29 216 -83 41 -59 68 -81 136 -112
49 -23 74 -28 135 -27 118 0 180 34 226 126 28 54 54 61 80 22 9 -14 55 -53
101 -86 46 -34 95 -79 109 -100 42 -67 112 -63 140 9 26 66 38 84 82 127 86
85 247 142 433 152 122 7 195 -1 203 -23 4 -9 -15 -30 -57 -61 -111 -84 -173
-156 -221 -256 -53 -110 -66 -168 -66 -290 0 -110 19 -196 61 -280 105 -212
283 -327 503 -327 324 1 536 192 536 485 0 181 -95 347 -237 413 -78 36 -193
37 -268 4 -173 -78 -222 -295 -92 -409 108 -94 263 -62 331 71 24 47 28 61 20
88 -11 38 -57 73 -110 83 -47 8 -62 -5 -40 -36 23 -33 20 -85 -5 -110 -51 -51
-159 9 -159 87 0 89 65 130 190 122 160 -12 238 -115 228 -300 -9 -146 -81
-258 -205 -320 -57 -28 -79 -33 -158 -36 -115 -5 -181 12 -267 71 -71 49 -133
132 -168 224 -48 124 -36 307 28 442 33 70 123 165 209 223 82 55 126 74 190
83 26 4 73 13 103 21 127 31 504 44 563 19 10 -4 29 -29 43 -56 32 -65 82 -91
184 -97 123 -7 191 22 230 98 12 23 29 40 43 44 44 11 270 27 294 21 38 -9 27
-39 -32 -88 -77 -63 -123 -120 -161 -202 -52 -109 -75 -212 -75 -340 0 -186
42 -296 156 -411 137 -138 313 -184 509 -134 283 72 432 343 337 613 -52 149
-190 244 -324 222 -205 -34 -316 -196 -239 -350 41 -85 106 -119 222 -119 135
-1 182 38 164 133 -12 62 -43 67 -103 17 -42 -35 -88 -51 -132 -44 -23 3 -24
7 -27 85 -3 95 6 119 53 139 118 49 253 -22 291 -153 45 -155 -29 -308 -184
-380 -104 -48 -207 -62 -298 -40 -295 72 -405 451 -215 744 77 119 226 219
381 256 191 46 277 52 730 52 453 0 539 -6 730 -52 155 -37 304 -137 381 -256
190 -293 80 -672 -215 -744 -177 -43 -404 54 -467 200 -62 146 -14 314 106
368 74 34 189 18 215 -30 6 -12 10 -56 8 -104 -3 -78 -4 -82 -27 -85 -44 -7
-90 9 -132 44 -60 50 -91 45 -103 -17 -16 -85 21 -124 131 -135 157 -17 276
77 276 217 0 145 -125 251 -298 253 -154 1 -270 -110 -305 -292 -49 -250 100
-477 356 -542 196 -50 372 -4 509 134 114 115 155 224 155 412 0 231 -79 413
-235 541 -59 49 -70 79 -32 88 24 6 250 -10 294 -21 14 -4 31 -21 43 -44 39
-76 107 -105 230 -98 102 6 152 32 184 97 14 27 33 52 43 56 59 25 436 12 563
-19 30 -8 78 -17 105 -21 135 -19 333 -172 397 -307 114 -241 53 -533 -140
-665 -86 -59 -152 -76 -267 -71 -79 3 -102 8 -157 36 -127 62 -198 174 -206
320 -10 186 68 288 228 300 125 8 190 -33 190 -122 0 -78 -108 -138 -159 -87
-25 25 -28 77 -5 110 22 31 7 44 -40 36 -53 -10 -99 -45 -110 -83 -13 -45 33
-133 91 -175 84 -60 206 -45 277 33 109 121 54 318 -109 392 -75 33 -190 32
-267 -4 -222 -103 -306 -417 -176 -660 121 -227 497 -312 743 -169 139 80 247
233 285 401 15 68 12 228 -5 295 -39 153 -127 278 -272 388 -42 31 -61 52 -57
61 8 22 81 30 203 23 186 -10 347 -67 433 -152 44 -43 56 -61 82 -127 28 -72
98 -76 140 -9 14 21 63 66 109 100 46 33 92 72 101 86 26 39 52 32 80 -22 46
-92 108 -126 226 -126 61 -1 86 4 135 27 68 31 95 53 136 112 37 54 82 71 216
83 59 5 485 13 946 17 l837 7 0 47 0 47 -497 6 c-273 4 -645 7 -827 7 -372 0
-548 11 -607 37 -24 11 -55 38 -77 68 -49 65 -103 101 -181 121 -139 35 -263
-14 -311 -123 -22 -50 -51 -57 -76 -18 -9 14 -54 52 -99 85 -45 32 -94 77
-108 99 -52 78 -111 66 -155 -31 -49 -108 -158 -186 -321 -230 -99 -27 -366
-32 -381 -8 -12 19 6 38 86 96 117 83 204 208 239 344 13 49 16 93 13 180 -7
186 -63 314 -193 445 -121 121 -253 172 -415 161 -141 -9 -246 -53 -337 -139
-100 -94 -147 -210 -147 -363 1 -266 164 -449 386 -431 163 14 278 123 278
265 0 220 -274 308 -390 125 -37 -58 -45 -95 -28 -130 19 -41 116 -83 147 -64
11 7 11 13 -3 32 -38 55 -7 129 55 129 91 0 138 -95 88 -176 -25 -41 -50 -49
-154 -49 -70 0 -86 4 -128 28 -87 51 -122 132 -115 267 3 73 9 98 36 152 144
292 581 278 733 -23 47 -94 62 -169 56 -279 -8 -163 -62 -278 -176 -382 -126
-114 -196 -142 -466 -190 -71 -12 -428 -16 -467 -5 -20 5 -35 22 -53 58 -35
68 -98 99 -200 99 -117 0 -187 -32 -215 -99 -6 -16 -24 -34 -38 -40 -33 -13
-269 -33 -300 -25 -39 11 -25 41 52 103 88 72 156 168 193 271 34 98 43 261
19 362 -72 310 -335 501 -613 446 -110 -22 -184 -59 -264 -136 -54 -50 -79
-84 -112 -150 -42 -85 -42 -86 -42 -196 0 -97 3 -117 24 -159 32 -65 99 -130
169 -164 50 -24 69 -28 147 -28 80 0 95 3 136 27 165 97 188 304 45 413 -26
20 -51 28 -94 32 -135 12 -242 -70 -212 -163 15 -45 42 -44 99 1 44 35 88 50
132 43 23 -3 24 -7 27 -87 3 -98 -9 -125 -65 -140 -129 -36 -241 28 -280 158
-43 150 39 320 184 382 320 137 603 -48 606 -396 3 -269 -182 -493 -466 -565
-191 -48 -287 -55 -737 -55 -450 0 -546 7 -737 55 -284 72 -469 296 -466 565
3 348 286 533 606 396 145 -62 227 -232 184 -382 -39 -130 -151 -194 -280
-158 -56 15 -68 42 -65 140 3 80 4 84 27 87 44 7 88 -8 132 -43 57 -45 84 -46
99 -1 30 93 -77 175 -212 163 -177 -16 -251 -241 -125 -383 16 -19 51 -47 76
-62 41 -24 56 -27 136 -27 78 0 98 4 147 28 71 35 129 91 165 159 26 49 28 62
28 164 0 110 0 111 -42 196 -100 201 -319 322 -527 291 -189 -28 -331 -136
-417 -318 -65 -135 -77 -340 -30 -487 31 -97 108 -206 197 -279 77 -62 92 -92
52 -103 -31 -8 -267 12 -300 25 -14 6 -32 24 -38 40 -28 67 -98 99 -215 99
-102 0 -165 -31 -200 -99 -18 -36 -33 -53 -53 -58 -39 -11 -396 -7 -467 5
-211 38 -266 53 -345 99 -85 50 -210 174 -240 238 -79 171 -80 357 -1 514 152
301 589 315 733 23 27 -54 33 -79 36 -152 7 -135 -28 -216 -115 -267 -42 -24
-58 -28 -128 -28 -104 0 -129 8 -154 49 -51 82 -4 176 89 176 61 0 92 -75 54
-129 -31 -43 17 -49 96 -12 67 31 74 90 20 174 -116 183 -390 95 -390 -125 0
-142 115 -251 278 -265 224 -19 387 167 385 437 -2 232 -118 393 -343 472 -74
26 -226 33 -304 13z m-847 -1136 c16 -13 56 -46 90 -74 33 -27 61 -58 61 -67
0 -10 -3 -18 -7 -18 -5 0 -41 -29 -81 -65 -105 -93 -181 -108 -252 -48 -43 36
-60 74 -60 133 0 74 37 133 100 159 41 17 116 7 149 -20z m7179 4 c49 -36 72
-81 72 -140 0 -62 -17 -100 -60 -136 -71 -60 -147 -45 -252 48 -40 36 -76 65
-80 65 -20 0 -4 39 25 60 17 13 50 41 73 62 22 21 54 45 70 53 38 21 116 14
152 -12z m-7696 -23 c114 -43 153 -128 86 -186 -107 -90 -272 -94 -347 -9
-109 124 79 264 261 195z m8213 9 c22 -6 56 -28 77 -49 51 -50 53 -102 7 -155
-75 -85 -240 -81 -346 9 -115 97 83 244 262 195z m-5715 -78 c15 -11 26 -30
28 -47 4 -44 -26 -67 -98 -72 -55 -4 -61 -2 -90 26 -36 37 -37 52 -6 81 45 43
115 48 166 12z m3151 19 c19 -6 46 -21 59 -35 20 -21 22 -28 12 -49 -19 -42
-55 -59 -117 -54 -63 5 -95 28 -95 68 0 31 25 57 66 70 39 11 34 11 75 0z"/>
</g>
</svg>
